<?xml version="1.0" encoding="UTF-8"?>
<svg width="200px" height="57px" viewBox="0 0 200 57" version="1.1" xmlns="http://www.w3.org/2000/svg" xmlns:xlink="http://www.w3.org/1999/xlink">
    <!-- Generator: Sketch 49.3 (51167) - http://www.bohemiancoding.com/sketch -->
    <title>HubSpot Wordmark - Full Color</title>
    <desc>Created with Sketch.</desc>
    <defs></defs>
    <g id="HubSpot-Wordmark---Full-Color" stroke="none" stroke-width="1" fill="none" fill-rule="evenodd">
        <g id="Page-1">
            <polygon id="Fill-1" fill="#33475B" points="21.6380887 9.3174744 21.6380887 25.2935836 6.96607509 25.2935836 6.96607509 9.3174744 -0.000136518771 9.3174744 -0.000136518771 47.4539932 6.96607509 47.4539932 6.96607509 31.9966553 21.6380887 31.9966553 21.6380887 47.4539932 28.603959 47.4539932 28.603959 9.3174744"></polygon>
            <g id="Group-14" transform="translate(32.764505, 0.283276)">
                <path d="M18.1330717,34.8429693 C18.1330717,38.0255631 15.5528669,40.6057679 12.370273,40.6057679 C9.18767918,40.6057679 6.6074744,38.0255631 6.6074744,34.8429693 L6.6074744,18.5084983 L-3.41296928e-05,18.5084983 L-3.41296928e-05,34.8429693 C0.000989761092,41.6682253 5.53477816,47.2006485 12.3600341,47.1996246 C19.1842662,47.1986007 24.7156655,41.6668601 24.7166894,34.8429693 L24.7166894,18.5084983 L18.1330717,18.5084983 L18.1330717,34.8429693 Z" id="Fill-2" fill="#33475B"></path>
                <path d="M67.0886689,20.1911945 C67.0886689,16.8430717 69.303686,15.7816382 71.7303072,15.7816382 C73.6862799,15.7816382 76.2695563,17.2696928 77.9589761,19.0751536 L82.2866212,13.9761775 C80.1262116,11.0546758 75.743959,9.03419795 72.1569283,9.03419795 C64.9896928,9.03419795 59.8053925,13.2321502 59.8053925,20.1911945 C59.8053925,33.1024573 75.5869625,29.0068942 75.5869625,36.2321502 C75.5869625,38.4604778 73.4231399,40.4301024 70.9453242,40.4301024 C67.0374744,40.4301024 65.7712628,38.5188396 63.976041,36.4980205 L59.1739932,41.4915358 C62.2456655,45.2628669 66.0340614,47.1772014 70.5733106,47.1772014 C77.3825256,47.1772014 82.86,42.9283959 82.86,36.2867577 C82.86,21.9522867 67.07843,26.4062116 67.07843,20.1911945" id="Fill-4" fill="#33475B"></path>
                <path d="M164.720102,41.0786348 C160.816007,41.0786348 159.706792,39.389215 159.706792,36.8021843 L159.706792,25.3513311 L165.77471,25.3513311 L165.77471,19.5492833 L159.706792,19.5492833 L159.706792,11.8943345 L153.006792,14.9011604 L153.006792,38.2253925 C153.006792,44.1909215 157.122833,47.1980887 162.767884,47.1980887 C163.653208,47.2141297 164.538191,47.1434812 165.409863,46.9864846 L167.044334,40.9694198 C166.307133,41.020273 165.460717,41.0714676 164.720102,41.0714676" id="Fill-6" fill="#33475B"></path>
                <path d="M43.2423891,40.546041 C39.0956314,40.546041 35.7338567,37.1842662 35.7338567,33.0375085 C35.7338567,28.8907509 39.0956314,25.5289761 43.2423891,25.5289761 C47.3891468,25.5289761 50.7509215,28.8907509 50.7509215,33.0375085 C50.7509215,37.1842662 47.3891468,40.546041 43.2423891,40.546041 M43.2833447,18.6996246 C40.0103072,18.6996246 37.7270307,19.64843 35.5188396,21.8156655 L35.5188396,9.26276451 L28.9010922,9.26276451 L28.9010922,32.5289761 C28.9010922,41.2388737 35.1980205,47.204744 42.2731058,47.204744 C50.1229352,47.204744 57.027372,41.1330717 57.027372,32.9555973 C57.027372,24.8805119 50.6724232,18.7030375 43.2833447,18.7030375" id="Fill-8" fill="#33475B"></path>
                <path d="M108.87372,32.5255631 C108.87372,36.6723208 105.511945,40.0340956 101.365188,40.0340956 C97.21843,40.0340956 93.8566553,36.6723208 93.8566553,32.5255631 C93.8566553,28.3788055 97.21843,25.0170307 101.365188,25.0170307 C105.511945,25.0170307 108.87372,28.3788055 108.87372,32.5255631 M115.139932,32.6074744 C115.139932,24.4163481 108.249147,18.3583276 100.385666,18.3583276 C93.3105802,18.3583276 87.0136519,24.324198 87.0136519,33.0340956 L87.0136519,56.313959 L93.6313993,56.313959 L93.6313993,43.7439932 C95.8361775,45.9078157 98.1228669,46.8600341 101.392491,46.8600341 C108.781229,46.8600341 115.136519,40.6859727 115.136519,32.6074744" id="Fill-10" fill="#33475B"></path>
                <path d="M134.23901,39.8977816 C130.152321,39.8977816 126.839352,36.5848123 126.839352,32.4981229 C126.839352,28.4117747 130.152321,25.0991468 134.23901,25.0991468 C138.3257,25.0991468 141.638328,28.4117747 141.638328,32.4981229 C141.638328,36.5848123 138.3257,39.8977816 134.23901,39.8977816 M136.453686,18.2527304 L136.453686,11.6721843 C138.228771,10.8435154 139.366655,9.06501706 139.375529,7.1056314 L139.375529,6.95238908 C139.367679,4.15989761 137.106246,1.89846416 134.314096,1.89095563 L134.160512,1.89095563 C131.368362,1.89846416 129.106587,4.15989761 129.098737,6.95238908 L129.098737,7.1056314 C129.107611,9.06501706 130.245495,10.8435154 132.02058,11.6721843 L132.02058,18.2527304 C129.520239,18.6349829 127.16529,19.6708191 125.194642,21.255802 L107.126382,7.19778157 C107.255051,6.73430034 107.323652,6.25580205 107.33116,5.77491468 C107.334915,2.62133106 104.781331,0.0619453925 101.627747,0.0581911263 C98.4745051,0.0540955631 95.9151195,2.60767918 95.9113652,5.7609215 C95.9072696,8.91450512 98.4608532,11.4738908 101.614437,11.4776451 C102.606246,11.4742321 103.579625,11.2093857 104.436962,10.709727 L122.201126,24.5394198 C118.926724,29.4796928 119.014778,35.9223549 122.423311,40.7715017 L117.017167,46.1773038 C116.583379,46.0394198 116.13116,45.9656997 115.675529,45.959215 C113.084061,45.959215 110.982696,48.0602389 110.982696,50.6520478 C110.982696,53.2438567 113.084061,55.3448805 115.675529,55.3448805 C118.267338,55.3448805 120.368362,53.2438567 120.368362,50.6520478 C120.36256,50.1964164 120.28884,49.7445392 120.150273,49.3104096 L125.498396,43.9622867 C131.827406,48.7964164 140.876212,47.5848123 145.710341,41.255802 C150.544471,34.9274744 149.333208,25.8779863 143.004198,21.0438567 C141.088157,19.5803754 138.83628,18.6209898 136.453686,18.2527304" id="Fill-12" fill="#FF7A59"></path>
            </g>
        </g>
    </g>
</svg>